<svg width="70" height="70" viewBox="0 0 128 128" fill="none" xmlns="http://www.w3.org/2000/svg"> <path d="M93.8095 77.2337L93.8155 77.1622V77.0903V59.1712V58.967L93.7678 58.7684L86.8103 29.7787C86.4192 28.149 84.9617 27 83.2857 27H43.8233C42.8655 27 42.0328 27.6566 41.8092 28.5878L34.5659 58.7684L34.5183 58.967V59.1712V79.063C34.3259 80.5853 34.3789 83.5232 35.8723 86.5341C37.329 89.471 40.0911 92.3404 44.9854 94.0246C45.2429 98.1412 47.2001 101.332 49.7643 103.503C52.4762 105.8 55.9121 107 58.8607 107H69.299C72.2477 107 75.6836 105.8 78.3955 103.503C80.9595 101.332 82.9167 98.1412 83.1743 94.0253C88.0587 92.3502 90.824 89.5263 92.2849 86.6044C93.7657 83.643 93.8296 80.7402 93.6502 79.1447L93.8095 77.2337Z" fill="white" stroke="white" stroke-width="3.45206"></path> <path d="M70.7772 70.178H56.8595C54.2498 70.178 53.38 71.9176 53.38 74.0052V77.1367C53.38 78.7025 53.5539 79.7464 54.9458 80.7902L62.0786 85.8354H65.558L72.6909 80.7902C74.2567 79.9203 74.2567 78.7025 74.2567 77.1367V74.0052C74.2567 71.9176 73.2129 70.178 70.7772 70.178Z" fill="url(#paint0_linear_700_2)"></path> <path d="M16.8458 35.3837C11.6266 37.1235 11.6266 41.1248 12.3225 43.9084C14.7581 52.7809 19.2814 71.396 20.3252 73.6576C21.717 76.6151 26.9362 80.4426 27.2841 78.8768L39.4622 28.4248L16.8458 35.3837Z" fill="url(#paint1_linear_700_2)" stroke="white" stroke-width="3.45206"></path> <path d="M110.791 35.3837L88.1744 28.4248L100.353 78.8768C100.701 80.4426 105.92 76.6151 107.311 73.6576C108.355 71.396 112.878 52.7809 115.314 43.9084C115.836 41.1248 116.01 37.1235 110.791 35.3837Z" fill="url(#paint2_linear_700_2)" stroke="white" stroke-width="3.45206"></path> <path d="M92.0895 77.0904V59.1713L84.7826 28.7261H43.5512L36.2443 59.1713V77.0904V79.1781C35.8963 81.6137 36.2443 89.7904 46.6827 92.7479V93.0959C46.6827 101.099 53.8155 105.274 58.8607 105.274H69.299C74.3443 105.274 81.4772 101.099 81.4772 93.0959V92.7479C91.9155 89.7904 92.2634 81.7876 91.9155 79.1781L92.0895 77.0904ZM78.1716 51.3425C80.0854 51.3425 81.6511 52.9082 81.6511 54.8219C81.6511 56.7357 80.0854 58.3014 78.1716 58.3014C76.2579 58.3014 74.6922 56.7357 74.6922 54.8219C74.6922 52.9082 76.2579 51.3425 78.1716 51.3425ZM50.336 51.3425C52.2497 51.3425 53.8155 52.9082 53.8155 54.8219C53.8155 56.7357 52.2497 58.3014 50.336 58.3014C48.4224 58.3014 46.8566 56.7357 46.8566 54.8219C46.8566 52.9082 48.4224 51.3425 50.336 51.3425ZM69.4731 101.795H59.0347C55.5553 101.795 50.336 98.6632 50.336 93.0959H64.2538H64.4278H78.3456C78.1716 98.6632 72.9525 101.795 69.4731 101.795ZM79.5635 89.6165H65.9936H64.2538H64.0799H62.3402H48.9443C39.3758 87.5288 39.7238 80.9178 39.8977 79.7001C39.8977 79.526 39.8977 79.352 39.8977 79.1781V79.0041L59.2087 65.9562C60.2525 65.2603 60.7744 64.2165 60.7744 62.9987V32.2056H67.7333V63.1727C67.7333 64.3904 68.2552 65.4343 69.299 66.1302L88.61 79.1781C88.61 79.352 88.61 79.526 88.61 79.7001C88.784 80.9178 89.1319 87.5288 79.5635 89.6165Z" fill="url(#paint3_linear_700_2)"></path> <defs> <linearGradient id="paint0_linear_700_2" x1="63.8184" y1="70.178" x2="63.8184" y2="85.8354" gradientUnits="userSpaceOnUse"> <stop stop-color="#3ED696"></stop> <stop offset="1" stop-color="#047857"></stop> </linearGradient> <linearGradient id="paint1_linear_700_2" x1="25.7311" y1="28.4248" x2="25.7311" y2="79.2398" gradientUnits="userSpaceOnUse"> <stop stop-color="#3ED696"></stop> <stop offset="1" stop-color="#047857"></stop> </linearGradient> <linearGradient id="paint2_linear_700_2" x1="101.868" y1="28.4248" x2="101.868" y2="79.2398" gradientUnits="userSpaceOnUse"> <stop stop-color="#3ED696"></stop> <stop offset="1" stop-color="#047857"></stop> </linearGradient> <linearGradient id="paint3_linear_700_2" x1="64.127" y1="28.7261" x2="64.127" y2="105.274" gradientUnits="userSpaceOnUse"> <stop stop-color="#3ED696"></stop> <stop offset="1" stop-color="#047857"></stop> </linearGradient> </defs> </svg>